# xmcd
#
# Track frame offsets:
#	150
#	20578
#	40532
#	58761
#	74816
#	93846
#	114808
#	128227
#	148840
#	168209
#
# Disc length: 2522 seconds
#
# Revision: 0
# Processed by: cddbd v1.5.1PL2 Copyright (c) Steve Scherf et al.
# Submitted via: audiograbber 1.83.01
#
DISCID=8609d80a
DTITLE=g - g
DYEAR=1900
DGENRE=
TTITLE0=A - Traccia  1
TTITLE1=A - Traccia  2
TTITLE2=A - Traccia  3
TTITLE3=A - Traccia  4
TTITLE4=a - Traccia  5
TTITLE5=A - Traccia  6
TTITLE6=A - Traccia  7
TTITLE7=A - Traccia  8
TTITLE8=A - Traccia  9
TTITLE9=A - Traccia 10
EXTD=
EXTT0=
EXTT1=
EXTT2=
EXTT3=
EXTT4=
EXTT5=
EXTT6=
EXTT7=
EXTT8=
EXTT9=
PLAYORDER=
